<?xml version="1.0" encoding="UTF-8"?>
<svg version="1.1" xmlns="http://www.w3.org/2000/svg" width="535" height="466">
<path d="M0 0 C1.33442817 0.96746042 2.66647143 1.93856148 3.98046875 2.93359375 C6.82532218 4.43580843 9.65295616 4.80825046 12.8125 5.375 C22.25723292 7.25005727 27.34078047 10.9151685 33.5 18.1875 C39.31979537 24.84582506 44.12064562 25.73429944 52.72827148 26.59765625 C62.97646667 27.65404746 71.88173412 29.94819105 79 38 C88.28191405 50.86235888 96.05762154 65.60341386 100 81 C100.18038818 81.67748291 100.36077637 82.35496582 100.54663086 83.05297852 C105.59607734 103.40065941 100.56896398 121.08944508 91 139 C92.19625 138.835 93.3925 138.67 94.625 138.5 C110.48147453 136.7797221 126.20456145 137.46407184 139.18359375 147.7265625 C144.5805553 153.17781944 147.72151856 159.92534082 151.14233398 166.69580078 C155.06662392 174.38515588 159.82356005 181.11858661 165 188 C166.72840087 190.44334708 168.43233775 192.90167069 170.12890625 195.3671875 C171.59770846 197.43393632 173.1017899 199.44103146 174.65234375 201.4453125 C175.11253906 202.05375 175.57273437 202.6621875 176.046875 203.2890625 C176.94940409 204.48060371 177.86668117 205.66116902 178.80078125 206.828125 C181.6325511 210.60968101 182.63909672 213.42031332 182.34838867 218.02734375 C180.62867018 227.76478271 173.12133898 238.34073672 165.921875 244.890625 C159.05859255 251.75390745 158.60049842 259.51984024 157.35986328 268.73828125 C155.51806689 282.31068666 151.16426588 293.51181289 140.125 302.3125 C138.76871411 303.23642151 137.39355328 304.13330996 136 305 C135.36964844 305.41378906 134.73929687 305.82757813 134.08984375 306.25390625 C125.18423922 311.17858544 113.40978802 310.19220419 103.86083984 307.60839844 C96.16349185 305.25017478 89.18501069 301.74583177 82.20703125 297.76953125 C79.50315732 296.27762517 76.89281939 295.0623348 74 294 C74.53109375 294.65226562 75.0621875 295.30453125 75.609375 295.9765625 C79.29798201 300.54020401 82.74459405 305.11689108 86 310 C86.90774355 311.02877603 87.82537286 312.04887131 88.75 313.0625 C101.59661685 327.88303027 110.8872039 348.96817465 110.2734375 368.703125 C108.84252415 385.95585168 101.51342272 405.34580546 88.625 417.375 C78.78223539 425.10080637 66.80176046 426.04781691 54.69140625 426.55859375 C49.84026994 427.35420827 46.6730058 430.14277978 43.1875 433.4375 C33.36375479 442.1902354 21.98172779 443.85008645 9.19580078 443.18652344 C-9.10830746 441.63167146 -28.48082685 430.68560583 -40.97265625 417.53515625 C-47.60711591 409.23888589 -49.87313229 399.19014971 -52.47827148 389.12329102 C-58.16054034 367.59322645 -65.38977066 341.09380257 -77 322 C-77.99 321.67 -78.98 321.34 -80 321 C-78.57721384 330.76325677 -75.83425702 339.80879459 -72.625 349.125 C-63.95602394 374.35324612 -56.06063281 401.64952246 -67.625 427.1875 C-76.07636785 442.95927407 -91.95168226 449.69732601 -108.3203125 454.6796875 C-126.45407036 459.91189735 -144.01669494 463.7793504 -161.54296875 454.6796875 C-170.59969205 449.54052358 -178.94253944 442.90610474 -185.72265625 434.98828125 C-186.37105469 434.27027344 -187.01945312 433.55226563 -187.6875 432.8125 C-188.26886719 432.13832031 -188.85023438 431.46414063 -189.44921875 430.76953125 C-196.5991332 425.8094834 -207.86981062 426.19525866 -216.31640625 425.3203125 C-223.27008734 424.47627948 -223.27008734 424.47627948 -226.484375 422.37890625 C-228.51871622 419.18582943 -229.74565071 415.89876993 -230.875 412.3125 C-231.12403076 411.54518555 -231.37306152 410.77787109 -231.62963867 409.98730469 C-240.49073563 381.79366121 -247.02488218 352.58562182 -233.1875 325.0625 C-230.10071131 319.77199877 -226.26008992 315.37475073 -222 311 C-221.0925 310.05125 -220.185 309.1025 -219.25 308.125 C-217.24986152 306.23598033 -215.21205099 304.62650808 -213 303 C-218.02051174 303.99566001 -223.0368315 305.00450873 -228.04296875 306.0703125 C-245.93250605 309.79464984 -262.89326363 311.55799446 -279.33984375 301.83203125 C-287.06772594 296.50989212 -292.27468383 290.29453662 -296.5 282 C-296.82637451 281.3601416 -297.15274902 280.7202832 -297.48901367 280.06103516 C-302.66962229 269.12618652 -302.17733135 258.03739578 -301.50634766 246.22338867 C-300.82151547 237.99785805 -300.82151547 237.99785805 -303.71972656 230.59350586 C-305.72940801 228.85365545 -307.77791867 227.44925491 -310 226 C-314.48849768 220.50159034 -314.47571332 215.80204703 -314.39257812 208.8137207 C-313.74109619 202.48486545 -311.26910276 197.29141618 -308.5 191.625 C-307.67568481 189.86627563 -307.67568481 189.86627563 -306.8347168 188.07202148 C-305.24692116 184.7026945 -303.62480461 181.3515844 -302 178 C-301.24306214 176.37510672 -300.48873555 174.74899161 -299.73828125 173.12109375 C-293.63974597 160.11380216 -286.34237399 147.7797807 -272.5625 142.1875 C-244.58919516 133.04684541 -209.64939888 148.06664207 -183.78515625 158.65234375 C-173.18402687 163.63150033 -173.18402687 163.63150033 -162 166 C-166.90191782 163.1039517 -171.80885027 160.21671163 -176.72119141 157.33837891 C-178.75903346 156.14152331 -180.79200537 154.93684243 -182.82421875 153.73046875 C-194.57782245 146.80302009 -206.04388776 142.47131544 -219.25976562 139.22998047 C-227.15480944 137.2227423 -232.89321498 134.29407888 -237.609375 127.48046875 C-245.13409323 114.05856966 -245.32283439 95.34738724 -241.5 80.6875 C-240.72485862 78.43743682 -239.8873255 76.2082305 -239 74 C-238.7421875 73.34322266 -238.484375 72.68644531 -238.21875 72.00976562 C-234.12292426 61.72279588 -228.96748007 52.18218392 -223.37109375 42.64233398 C-219.64555351 36.26103954 -216.43152442 29.81040022 -213.5 23.03125 C-211.9653886 19.93005613 -210.35090631 17.53457087 -208 15 C-204.78883109 13.92961036 -202.24196924 14.03691891 -198.89477539 14.16723633 C-184.31927767 14.65815473 -171.99860415 10.93181132 -158.7265625 5.13671875 C-151.01289244 1.92084771 -142.3422183 -0.82162583 -134 1 C-129.50803149 2.90311147 -125.3068383 5.35345149 -121.07421875 7.765625 C-117.89354768 9.56476293 -114.81102612 10.90444972 -111.3125 12 C-97.5663839 16.60997796 -86.21226927 26.0743657 -79.625 38.875 C-79.29064941 39.52283447 -78.95629883 40.17066895 -78.61181641 40.83813477 C-74.17368476 50.04708645 -73.74342457 59.36127744 -73.5625 69.4375 C-73.17433572 83.32647237 -71.48893546 96.55778112 -68 110 C-67.67 110 -67.34 110 -67 110 C-66.99413376 109.35013123 -66.98826752 108.70026245 -66.98222351 108.03070068 C-66.91787854 101.2161554 -66.83335674 94.40206458 -66.73754883 87.58789062 C-66.70446391 85.05084252 -66.67638183 82.51372372 -66.65356445 79.9765625 C-66.61971515 76.31219586 -66.56738435 72.64846764 -66.51171875 68.984375 C-66.50532883 67.86512634 -66.4989389 66.74587769 -66.49235535 65.5927124 C-66.20077131 49.68027937 -61.37527013 37.45617208 -50.83203125 25.58203125 C-42.52142088 18.00504718 -33.32888327 12.78550483 -23.25512695 7.98779297 C-21.16474629 6.98912959 -19.08732605 5.9664302 -17.00976562 4.94140625 C-15.66736882 4.29281555 -14.32429333 3.64562725 -12.98046875 3 C-12.3678569 2.69698975 -11.75524506 2.39397949 -11.12406921 2.08178711 C-7.26571185 0.27042099 -4.25151114 -0.47014287 0 0 Z M-64 154 C-65.75523701 155.75523701 -65.48347957 158.28871767 -65.75390625 160.6796875 C-65.95209961 162.41412109 -65.95209961 162.41412109 -66.15429688 164.18359375 C-66.35635742 166.01083984 -66.35635742 166.01083984 -66.5625 167.875 C-66.70107422 169.08542969 -66.83964844 170.29585937 -66.98242188 171.54296875 C-67.72626371 177.75692569 -67.72626371 177.75692569 -68 184 C-71.63 184 -75.26 184 -79 184 C-79.33 182.35 -79.66 180.7 -80 179 C-80.51001068 177.44065512 -81.05398824 175.8920678 -81.62890625 174.35546875 C-82.09780273 173.09379883 -82.09780273 173.09379883 -82.57617188 171.80664062 C-82.90166016 170.94232422 -83.22714844 170.07800781 -83.5625 169.1875 C-83.89185547 168.30384766 -84.22121094 167.42019531 -84.56054688 166.50976562 C-85.37034601 164.33856505 -86.18358893 162.16872111 -87 160 C-87.66 160 -88.32 160 -89 160 C-88.67828361 167.126018 -87.11635657 173.29817674 -84.7421875 180.01953125 C-83.94961313 183.20234308 -83.8951088 184.92668612 -85 188 C-88 190 -88 190 -90.3828125 189.98828125 C-93.97597826 188.63145896 -95.65552094 186.17036397 -97.875 183.1875 C-101.47598036 178.6033927 -104.50382078 175.17557094 -110 173 C-110.99 173.495 -110.99 173.495 -112 174 C-107.36447734 179.90535999 -102.6637049 185.56190036 -97.37109375 190.89453125 C-96 193 -96 193 -96.125 195.5859375 C-97.32622651 198.90003565 -99.40929711 200.67501023 -102 203 C-108.62943593 200.50662808 -114.94248577 197.61174966 -121.23828125 194.3671875 C-126.38667303 191.76930365 -126.38667303 191.76930365 -132 191 C-130.52912067 195.78308168 -126.56245049 197.33579408 -122.4375 199.5625 C-121.35855469 200.15792603 -121.35855469 200.15792603 -120.2578125 200.76538086 C-115.29622631 203.44787808 -110.46420703 205.53637312 -105 207 C-105.99 210.3 -106.98 213.6 -108 217 C-112.51347597 216.48904046 -116.92081849 215.83087069 -121.375 214.9375 C-128.86515683 213.55582058 -135.83903043 212.98485492 -143 216 C-139.45222475 218.11472193 -136.11544164 218.55312183 -132.046875 219.0703125 C-131.38665344 219.15626678 -130.72643188 219.24222107 -130.04620361 219.33078003 C-127.94827726 219.60232862 -125.84923708 219.86379795 -123.75 220.125 C-122.32283128 220.30792884 -120.89574671 220.49151539 -119.46875 220.67578125 C-115.98010873 221.12480865 -112.49039745 221.56480888 -109 222 C-109 225.63 -109 229.26 -109 233 C-110.7325 233.309375 -110.7325 233.309375 -112.5 233.625 C-118.61134263 234.96910859 -124.33183298 237.29435824 -130.15625 239.53515625 C-134.39451564 241.1650187 -138.67710167 242.61049697 -143 244 C-143 244.33 -143 244.66 -143 245 C-136.9602792 245.2066039 -131.68091664 244.51216973 -125.8125 243.125 C-124.64170898 242.86396484 -124.64170898 242.86396484 -123.44726562 242.59765625 C-119.45869497 241.68424312 -115.78801075 240.5706386 -112 239 C-109.875 239.0625 -109.875 239.0625 -108 240 C-105.46629412 243.34811134 -105 244.70124217 -105 249 C-106.45019531 249.74443359 -106.45019531 249.74443359 -107.9296875 250.50390625 C-119.51689202 256.39511414 -119.51689202 256.39511414 -130 264 C-130 264.66 -130 265.32 -130 266 C-124.24511605 264.61062828 -119.5267344 262.31828434 -114.375 259.4375 C-105.05383275 254.23100885 -105.05383275 254.23100885 -101 254 C-98.625 255.625 -98.625 255.625 -97 258 C-96.9375 260.4375 -96.9375 260.4375 -98 263 C-99.64812608 264.68500326 -101.31776363 266.34904986 -103 268 C-104.61242407 269.7866699 -106.196243 271.59958274 -107.75 273.4375 C-108.52859375 274.34371094 -109.3071875 275.24992187 -110.109375 276.18359375 C-112.15498042 279.2308696 -112.6799657 281.37827856 -113 285 C-105.97275505 282.65758502 -101.54465345 274.10267348 -97.578125 268.19921875 C-96.17719552 266.24693336 -94.75415655 264.63263366 -93 263 C-92.05125 263.495 -91.1025 263.99 -90.125 264.5 C-87.27721834 266.14424369 -87.27721834 266.14424369 -85 266 C-84.59584431 272.49588423 -85.7672739 276.86609671 -88.4375 282.75 C-89.08431962 284.22295556 -89.72892972 285.6968838 -90.37109375 287.171875 C-90.65911865 287.8122168 -90.94714355 288.45255859 -91.24389648 289.11230469 C-92.99122475 293.47470125 -93.09033693 297.30247978 -93 302 C-92.34 302 -91.68 302 -91 302 C-85.96325528 291.89748033 -82.0953915 281.85526696 -79 271 C-71.125 271.875 -71.125 271.875 -70 273 C-68.8741237 279.29166167 -68.66644291 285.59783849 -68.39453125 291.97265625 C-68.17393045 296.71177003 -67.75559156 301.31533231 -67 306 C-66.34 306 -65.68 306 -65 306 C-62.11147033 295.21959464 -62.8098117 284.0557919 -63 273 C-59.45648927 271.38010938 -56.87280581 270.89585732 -53 271 C-52.84217041 271.58773193 -52.68434082 272.17546387 -52.52172852 272.78100586 C-50.57444562 279.67299882 -47.93131542 286.06500539 -44.9375 292.5625 C-44.26750977 294.05620117 -44.26750977 294.05620117 -43.58398438 295.58007812 C-43.15279297 296.52431641 -42.72160156 297.46855469 -42.27734375 298.44140625 C-41.88796631 299.29420166 -41.49858887 300.14699707 -41.09741211 301.02563477 C-40.15567357 303.15737597 -40.15567357 303.15737597 -38 304 C-36.25234288 292.54313667 -41.95757116 283.61821683 -47.72265625 274.1796875 C-49.35048034 271.40193262 -49.78814211 270.15256844 -49 267 C-45.94469509 264.02616989 -43.32713481 262 -39 262 C-37.30859375 264.203125 -37.30859375 264.203125 -35.4375 267.25 C-31.13630321 273.97812906 -26.21833285 279.96897596 -21 286 C-20.04766375 283.47573524 -19.84364691 282.37524741 -20.8984375 279.84375 C-25.20906089 273.00149066 -29.72225884 266.14329071 -35 260 C-35.66 260 -36.32 260 -37 260 C-35.68 257.69 -34.36 255.38 -33 253 C-28.5269222 253.57906636 -25.12681786 255.4152631 -21.3125 257.6875 C-20.39537231 258.22008423 -20.39537231 258.22008423 -19.4597168 258.76342773 C-14.90071378 261.42200113 -10.41929546 264.19927941 -5.98828125 267.06640625 C-3.87023372 268.3397771 -3.87023372 268.3397771 -1 267 C-5.67276037 262.48686809 -10.67156405 258.7475471 -16.125 255.25 C-16.71039551 254.87367432 -17.29579102 254.49734863 -17.89892578 254.10961914 C-21.49862912 251.83838981 -25.164318 249.84206005 -29 248 C-28.690625 247.2575 -28.38125 246.515 -28.0625 245.75 C-27.1905075 243.49307824 -26.52332993 241.3549847 -26 239 C-21.81192698 239.6045284 -18.00467365 240.58387944 -14 241.9375 C-7.04885084 244.1423051 -0.23893449 245.17517388 7 246 C7 245.01 7 244.02 7 243 C6.38068604 242.80889648 5.76137207 242.61779297 5.12329102 242.42089844 C2.26790577 241.53625862 -0.58477672 240.64318493 -3.4375 239.75 C-4.41138672 239.44964844 -5.38527344 239.14929688 -6.38867188 238.83984375 C-12.47460908 236.92653908 -18.21971526 234.70184974 -24 232 C-24 229.03 -24 226.06 -24 223 C-12.5896182 219.54007778 -0.79994684 218.39925653 11 217 C7.86080915 213.86080915 4.24263847 214.04489565 0 214 C-9.29989288 214.69459781 -18.06517869 216.26991571 -27 219 C-27.495 213.06 -27.495 213.06 -28 207 C-26.081875 206.22076172 -26.081875 206.22076172 -24.125 205.42578125 C-22.41651037 204.72173333 -20.70818579 204.0172848 -19 203.3125 C-18.16082031 202.97283203 -17.32164062 202.63316406 -16.45703125 202.28320312 C-10.94045537 199.99532088 -5.95351833 197.33722543 -1 194 C-2.93491174 192.75871808 -2.93491174 192.75871808 -4.92016602 193.49731445 C-5.69030029 193.7830835 -6.46043457 194.06885254 -7.25390625 194.36328125 C-8.5368457 194.82831055 -8.5368457 194.82831055 -9.84570312 195.30273438 C-10.74224609 195.63595703 -11.63878906 195.96917969 -12.5625 196.3125 C-27.93812625 202 -27.93812625 202 -34 202 C-35.41898766 199.35122304 -36.31911019 196.91985181 -37 194 C-36.56171875 193.63390625 -36.1234375 193.2678125 -35.671875 192.890625 C-31.12149117 189.006151 -26.77203376 184.93583248 -22.5 180.75 C-21.68934082 179.97124512 -21.68934082 179.97124512 -20.86230469 179.17675781 C-19.51538674 177.84196646 -18.25047494 176.42554143 -17 175 C-17 174.01 -17 173.02 -17 172 C-26.30618223 176.09813529 -33.06711711 185.06186898 -39 193 C-44.75 191.25 -44.75 191.25 -47 189 C-46.6333641 185.09219782 -44.3704402 181.72443592 -42.5625 178.3125 C-39.78473949 172.9228574 -37.80469248 168.0351936 -37 162 C-37.495 161.01 -37.495 161.01 -38 160 C-38.66 160 -39.32 160 -40 160 C-40.44730469 161.03898438 -40.89460938 162.07796875 -41.35546875 163.1484375 C-44.69938396 170.87643228 -48.10327887 178.52978807 -52 186 C-58.75 185.125 -58.75 185.125 -61 184 C-60.98428955 183.19780029 -60.9685791 182.39560059 -60.95239258 181.5690918 C-60.89011417 177.94196596 -60.85103136 174.31495251 -60.8125 170.6875 C-60.78736328 169.42486328 -60.76222656 168.16222656 -60.73632812 166.86132812 C-60.72666016 165.65283203 -60.71699219 164.44433594 -60.70703125 163.19921875 C-60.6913208 162.08377686 -60.67561035 160.96833496 -60.65942383 159.8190918 C-60.75178209 156.96795151 -60.75178209 156.96795151 -62.51831055 155.11254883 C-63.00726807 154.74540771 -63.49622559 154.3782666 -64 154 Z " fill="#030203" transform="translate(335,6)"/>
<path d="M0 0 C0.33 0 0.66 0 1 0 C0.98952637 0.83772949 0.97905273 1.67545898 0.96826172 2.53857422 C0.93419981 5.64338164 0.90911089 8.74809392 0.89013672 11.85302734 C0.87511893 13.8591136 0.84971019 15.86511324 0.82421875 17.87109375 C0.81777344 19.12792969 0.81132813 20.38476562 0.8046875 21.6796875 C0.79421387 22.84226074 0.78374023 24.00483398 0.77294922 25.20263672 C0.70738003 28.13910279 0.70738003 28.13910279 3 30 C2.34 30 1.68 30 1 30 C2.43884472 38.63846539 2.43884472 38.63846539 5 47 C0.19033305 43.79355537 -0.51714412 38.90970985 -1.64697266 33.39599609 C-2.34533134 28.65623665 -2.37080105 23.90836949 -2.375 19.125 C-2.37653076 18.15087158 -2.37806152 17.17674316 -2.37963867 16.1730957 C-2.29221641 10.46622899 -1.61787732 5.47489684 0 0 Z " fill="#5D575B" transform="translate(94,86)"/>
<path d="M0 0 C0 3 0 3 -1.49609375 4.71875 C-2.13675781 5.3065625 -2.77742188 5.894375 -3.4375 6.5 C-5.92139791 8.78819687 -6.90880131 9.72640392 -8 13 C-8.99 13.495 -8.99 13.495 -10 14 C-9.67 14.99 -9.34 15.98 -9 17 C-9.66 17 -10.32 17 -11 17 C-11 18.65 -11 20.3 -11 22 C-9.75283203 21.65775391 -9.75283203 21.65775391 -8.48046875 21.30859375 C-7.39378906 21.02113281 -6.30710937 20.73367187 -5.1875 20.4375 C-4.10855469 20.14746094 -3.02960938 19.85742188 -1.91796875 19.55859375 C1 19 1 19 4 20 C2.27709395 20.70304222 0.54632534 21.38683491 -1.1875 22.0625 C-2.15042969 22.44535156 -3.11335938 22.82820313 -4.10546875 23.22265625 C-7.26365717 24.07080672 -8.92137619 24.03147054 -12 23 C-14.375 20.6875 -14.375 20.6875 -16 18 C-15.7690658 15.36525072 -15.23347174 14.24429116 -13.3984375 12.32421875 C-12.73070312 11.78410156 -12.06296875 11.24398437 -11.375 10.6875 C-7.34974871 7.33070199 -3.65247537 3.75520124 0 0 Z " fill="#585458" transform="translate(313,185)"/>
<path d="M0 0 C0.33 1.32 0.66 2.64 1 4 C0.34 4 -0.32 4 -1 4 C-1 3.01 -1 2.02 -1 1 C-3.31 1.33 -5.62 1.66 -8 2 C-8.01981934 2.8878418 -8.03963867 3.77568359 -8.06005859 4.69042969 C-8.13828232 7.99311334 -8.22497885 11.29535064 -8.31738281 14.59765625 C-8.35560024 16.02530398 -8.39046572 17.45304563 -8.421875 18.88085938 C-8.46768401 20.93653868 -8.5256498 22.99157554 -8.5859375 25.046875 C-8.6173584 26.28276367 -8.6487793 27.51865234 -8.68115234 28.79199219 C-8.97682001 31.76678017 -9.44027331 33.49349184 -11 36 C-11.99 35.67 -12.98 35.34 -14 35 C-13.34 35 -12.68 35 -12 35 C-10.8590698 26.48377101 -10.94610786 18.01432005 -11.125 9.44287109 C-11.13660156 8.51168457 -11.14820313 7.58049805 -11.16015625 6.62109375 C-11.18541382 5.35930298 -11.18541382 5.35930298 -11.21118164 4.07202148 C-11 2 -11 2 -9 0 C-5.7295226 -1.24052591 -3.35038257 -0.83759564 0 0 Z " fill="#807E82" transform="translate(282,277)"/>
<path d="M0 0 C1.32 0.99 2.64 1.98 4 3 C3.4975516 7.39642348 2.02704059 9.7948982 -1 13 C-4.64160808 14.21386936 -5.33165469 13.6674695 -8.6875 12.0625 C-9.49574219 11.68222656 -10.30398437 11.30195313 -11.13671875 10.91015625 C-11.75160156 10.60980469 -12.36648437 10.30945313 -13 10 C-9.25 8.875 -9.25 8.875 -7 10 C-6.67 9.34 -6.34 8.68 -6 8 C-6 8.66 -6 9.32 -6 10 C-5.01 10 -4.02 10 -3 10 C-2.67 8.35 -2.34 6.7 -2 5 C-1.34 5 -0.68 5 0 5 C0 3.35 0 1.7 0 0 Z " fill="#2A252C" transform="translate(236,196)"/>
<path d="M0 0 C5.13769686 7.70654529 4.25412917 17.7150875 4.125 26.625 C4.11597656 27.81996094 4.10695313 29.01492187 4.09765625 30.24609375 C4.07431077 33.16427834 4.04156656 36.08202776 4 39 C3.34 39 2.68 39 2 39 C1.97494385 38.09644775 1.9498877 37.19289551 1.92407227 36.26196289 C1.82912683 32.9203572 1.72988379 29.57893748 1.62768555 26.23754883 C1.5842837 24.7893576 1.54261256 23.34111346 1.50268555 21.89282227 C1.44510938 19.81510441 1.38137972 17.73765427 1.31640625 15.66015625 C1.26141968 13.78275757 1.26141968 13.78275757 1.20532227 11.86743164 C1.32196094 9.10369496 1.32196094 9.10369496 0 8 C-0.14115161 5.32941149 -0.04247107 2.67567762 0 0 Z " fill="#5B5659" transform="translate(257,50)"/>
<path d="M0 0 C0.66 0 1.32 0 2 0 C2.28875 1.134375 2.5775 2.26875 2.875 3.4375 C3.24625 4.613125 3.6175 5.78875 4 7 C4.66 7.33 5.32 7.66 6 8 C6 8.66 6 9.32 6 10 C9.38856466 11.69428233 13.21510111 11.40262081 16.95703125 11.62109375 C19.95933881 11.99493692 22.26006929 12.74905197 25 14 C25 14.33 25 14.66 25 15 C20.32386199 14.75354612 15.66390807 14.41888331 11 14 C9.83791016 13.90332031 9.83791016 13.90332031 8.65234375 13.8046875 C6.875 13.5 6.875 13.5 4 12 C1.55245539 8.18535841 0 4.55172333 0 0 Z " fill="#8C898C" transform="translate(105,417)"/>
<path d="M0 0 C0.99 0.33 1.98 0.66 3 1 C3.94921875 2.92578125 3.94921875 2.92578125 4.6875 5.3125 C4.93886719 6.09238281 5.19023437 6.87226563 5.44921875 7.67578125 C6 10 6 10 6 14 C8.97 14 11.94 14 15 14 C15 11.03 15 8.06 15 5 C15.66 5 16.32 5 17 5 C17.125 11.625 17.125 11.625 16 15 C12.37 15 8.74 15 5 15 C4.16260219 12.8765984 3.33019717 10.7512272 2.5 8.625 C1.80390625 6.84996094 1.80390625 6.84996094 1.09375 5.0390625 C0 2 0 2 0 0 Z " fill="#646064" transform="translate(251,175)"/>
<path d="M0 0 C-3.75 2 -3.75 2 -6 2 C-6 1.34 -6 0.68 -6 0 C-15.24 0 -24.48 0 -34 0 C-34 -0.33 -34 -0.66 -34 -1 C-22.49770878 -2.58652293 -11.35038824 -2.59437446 0 0 Z " fill="#474146" transform="translate(460,146)"/>
<path d="M0 0 C1.06992188 0.00644531 2.13984375 0.01289063 3.2421875 0.01953125 C4.35335937 0.03628906 5.46453125 0.05304687 6.609375 0.0703125 C7.73601562 0.07933594 8.86265625 0.08835937 10.0234375 0.09765625 C12.80229865 0.12120592 15.5807289 0.1540957 18.359375 0.1953125 C18.359375 0.8553125 18.359375 1.5153125 18.359375 2.1953125 C17.2923938 2.23289673 17.2923938 2.23289673 16.20385742 2.27124023 C12.98467983 2.38719689 9.76579515 2.50992495 6.546875 2.6328125 C5.42732422 2.67212891 4.30777344 2.71144531 3.15429688 2.75195312 C1.54458008 2.81479492 1.54458008 2.81479492 -0.09765625 2.87890625 C-1.5822937 2.93389282 -1.5822937 2.93389282 -3.09692383 2.98999023 C-5.7624601 3.10321581 -5.7624601 3.10321581 -8.640625 4.1953125 C-8.970625 4.8553125 -9.300625 5.5153125 -9.640625 6.1953125 C-10.300625 6.1953125 -10.960625 6.1953125 -11.640625 6.1953125 C-10.70194905 3.84862263 -10.06304639 2.46963539 -7.91503906 1.07470703 C-5.13891756 0.00132901 -2.97388747 -0.0316371 0 0 Z " fill="#6D6B6C" transform="translate(135.640625,19.8046875)"/>
<path d="M0 0 C1.134375 0.020625 2.26875 0.04125 3.4375 0.0625 C3.7675 0.7225 4.0975 1.3825 4.4375 2.0625 C3.7775 2.0625 3.1175 2.0625 2.4375 2.0625 C1.7775 6.0225 1.1175 9.9825 0.4375 14.0625 C-0.2225 14.0625 -0.8825 14.0625 -1.5625 14.0625 C-1.8925 16.0425 -2.2225 18.0225 -2.5625 20.0625 C-3.2225 20.0625 -3.8825 20.0625 -4.5625 20.0625 C-4.25505859 19.11890625 -4.25505859 19.11890625 -3.94140625 18.15625 C-2.24278765 12.75968181 -1.08411147 7.69590386 -0.5625 2.0625 C-1.2225 2.0625 -1.8825 2.0625 -2.5625 2.0625 C-3.2225 3.3825 -3.8825 4.7025 -4.5625 6.0625 C-4.605221 4.39638095 -4.60313832 2.72867115 -4.5625 1.0625 C-3.5625 0.0625 -3.5625 0.0625 0 0 Z " fill="#4E484E" transform="translate(297.5625,163.9375)"/>
<path d="M0 0 C1.9453125 0.77734375 1.9453125 0.77734375 4.125 1.9375 C5.21167969 2.50791016 5.21167969 2.50791016 6.3203125 3.08984375 C6.87460938 3.39019531 7.42890625 3.69054687 8 4 C7.67 4.66 7.34 5.32 7 6 C3.535 4.02 3.535 4.02 0 2 C-0.33 2.99 -0.66 3.98 -1 5 C-1.66 5 -2.32 5 -3 5 C-2.67 6.32 -2.34 7.64 -2 9 C-4.97 11.475 -4.97 11.475 -8 14 C-8.66 13.67 -9.32 13.34 -10 13 C-8.71389867 11.0170112 -7.42150861 9.03866624 -6.125 7.0625 C-5.40570313 5.96035156 -4.68640625 4.85820312 -3.9453125 3.72265625 C-2 1 -2 1 0 0 Z " fill="#6B676C" transform="translate(242,268)"/>
<path d="M0 0 C0.66 0.33 1.32 0.66 2 1 C1.21625 1.721875 0.4325 2.44375 -0.375 3.1875 C-2.89116255 5.88338845 -3.72965661 7.64266391 -5 11 C-5.99 11.66 -6.98 12.32 -8 13 C-9.07136051 15.30144109 -10.07989717 17.6340213 -11 20 C-11.66 20 -12.32 20 -13 20 C-11.69484268 15.42180568 -9.91106891 12.11589647 -7.0625 8.3125 C-6.37285156 7.38050781 -5.68320313 6.44851563 -4.97265625 5.48828125 C-3.40029876 3.50493131 -1.8421236 1.72662996 0 0 Z " fill="#615961" transform="translate(113,317)"/>
<path d="M0 0 C0.99 0 1.98 0 3 0 C1.8141763 3.37503669 0.72426311 5.64722731 -2 8 C-7.75 6.375 -7.75 6.375 -10 3 C-8.8553125 3.3403125 -8.8553125 3.3403125 -7.6875 3.6875 C-6.800625 3.790625 -5.91375 3.89375 -5 4 C-3.1645201 2.66621425 -3.1645201 2.66621425 -2 1 C-2 1.66 -2 2.32 -2 3 C-1.34 3 -0.68 3 0 3 C0 2.01 0 1.02 0 0 Z " fill="#434044" transform="translate(298,192)"/>
<path d="M0 0 C3.34373475 0.55728913 6.03312999 1.35173889 9 3 C8.25 10.625 8.25 10.625 6 14 C3.36 13.67 0.72 13.34 -2 13 C-2 12.67 -2 12.34 -2 12 C0.64 12 3.28 12 6 12 C6 9.03 6 6.06 6 3 C3.03 2.505 3.03 2.505 0 2 C0 1.34 0 0.68 0 0 Z " fill="#625F62" transform="translate(221,210)"/>
<path d="M0 0 C-0.99 0.33 -1.98 0.66 -3 1 C1.67209049 2.43023178 6.13103697 3.40380045 11 4 C11 4.33 11 4.66 11 5 C8.95840905 5.0272616 6.91671037 5.04651345 4.875 5.0625 C3.73804688 5.07410156 2.60109375 5.08570313 1.4296875 5.09765625 C-1.8129156 5.005327 -4.81932612 4.61389906 -8 4 C-7.6875 2.0625 -7.6875 2.0625 -7 0 C-3.86650268 -1.04449911 -3.01031744 -0.93423645 0 0 Z " fill="#726B71" transform="translate(198,221)"/>
<path d="M0 0 C1.3125 1.5625 1.3125 1.5625 1.3125 3.5625 C-7.1025 1.5825 -7.1025 1.5825 -15.6875 -0.4375 C-15.6875 -0.7675 -15.6875 -1.0975 -15.6875 -1.4375 C-13.9175132 -1.63282961 -12.14645721 -1.81848882 -10.375 -2 C-9.38886719 -2.10441406 -8.40273437 -2.20882812 -7.38671875 -2.31640625 C-4.22745134 -2.45813894 -2.42857181 -2.0687834 0 0 Z " fill="#655E65" transform="translate(133.6875,146.4375)"/>
<path d="M0 0 C6.81059063 -0.3095723 6.81059063 -0.3095723 10 2 C11.8125 4.5 11.8125 4.5 13 7 C12.67 7.66 12.34 8.32 12 9 C9.997193 7.69161864 7.99773901 6.37857806 6 5.0625 C5.42765625 4.68931641 4.8553125 4.31613281 4.265625 3.93164062 C2.82614271 2.98055411 1.41085511 1.99305724 0 1 C0 0.67 0 0.34 0 0 Z " fill="#4A484B" transform="translate(317,260)"/>
<path d="M0 0 C2.125 0.9375 2.125 0.9375 4 2 C2.35 2 0.7 2 -1 2 C-1.33 4.97 -1.66 7.94 -2 11 C-1.01 11 -0.02 11 1 11 C1 11.66 1 12.32 1 13 C-1.9375 12.1875 -1.9375 12.1875 -5 11 C-6 8 -6 8 -5.29296875 6.2109375 C-4.74576172 5.30214844 -4.74576172 5.30214844 -4.1875 4.375 C-3.83042969 3.76398438 -3.47335937 3.15296875 -3.10546875 2.5234375 C-2 1 -2 1 0 0 Z " fill="#646165" transform="translate(311,244)"/>
<path d="M0 0 C0.625 1.8125 0.625 1.8125 1 4 C0.01 5.485 0.01 5.485 -1 7 C-1.66 7 -2.32 7 -3 7 C-3.103125 7.70125 -3.20625 8.4025 -3.3125 9.125 C-4.09359003 12.39137647 -5.42058743 15.0471852 -7 18 C-7.66 18 -8.32 18 -9 18 C-7.65072455 13.46152802 -5.80840652 9.68067754 -3.375 5.625 C-2.74335937 4.56539062 -2.11171875 3.50578125 -1.4609375 2.4140625 C-0.73777344 1.21910156 -0.73777344 1.21910156 0 0 Z " fill="#5F5D5F" transform="translate(111,50)"/>
<path d="M0 0 C0.99 0 1.98 0 3 0 C2.34 1.98 1.68 3.96 1 6 C-0.65 6.33 -2.3 6.66 -4 7 C-4.66 5.68 -5.32 4.36 -6 3 C-5.195625 2.690625 -4.39125 2.38125 -3.5625 2.0625 C-1.10919595 1.23664655 -1.10919595 1.23664655 0 0 Z " fill="#262327" transform="translate(283,186)"/>
<path d="M0 0 C4.37653129 0.47620289 6.06538005 1.66899889 8.8125 5.0625 C9.41707031 5.79597656 10.02164063 6.52945312 10.64453125 7.28515625 C11.09183594 7.85105469 11.53914062 8.41695313 12 9 C11.67 9.66 11.34 10.32 11 11 C2.3690205 5.03416856 2.3690205 5.03416856 0 0 Z " fill="#555355" transform="translate(149,440)"/>
<path d="M0 0 C1.32 0.66 2.64 1.32 4 2 C4 2.99 4 3.98 4 5 C4.66 5 5.32 5 6 5 C6 5.66 6 6.32 6 7 C4.3733152 6.71788123 2.74867104 6.42397625 1.125 6.125 C0.22007812 5.96257812 -0.68484375 5.80015625 -1.6171875 5.6328125 C-4 5 -4 5 -6 3 C-4.02 3 -2.04 3 0 3 C0 2.01 0 1.02 0 0 Z " fill="#595659" transform="translate(329,240)"/>
<path d="M0 0 C2.60334924 2.71182212 2.99456691 3.89133813 3.1875 7.75 C3.0946875 9.35875 3.0946875 9.35875 3 11 C3.9075 10.649375 4.815 10.29875 5.75 9.9375 C8.87758436 9.03531221 10.05208081 8.86618493 13 10 C9.17679443 11.42258812 6.08718695 12.24042276 2 12 C0.40861915 7.82262526 -0.21278058 4.46839215 0 0 Z " fill="#7B787A" transform="translate(306,213)"/>
<path d="M0 0 C1.65 0 3.3 0 5 0 C5 0.99 5 1.98 5 3 C1.23699626 4.25433458 -2.27210909 4.10695422 -6.1875 4.0625 C-6.93708984 4.05798828 -7.68667969 4.05347656 -8.45898438 4.04882812 C-10.30602383 4.03706354 -12.15302213 4.01912865 -14 4 C-14 3.67 -14 3.34 -14 3 C-7.07 2.01 -7.07 2.01 0 1 C0 0.67 0 0.34 0 0 Z " fill="#666165" transform="translate(344,221)"/>
<path d="M0 0 C0.33 0.66 0.66 1.32 1 2 C2.65 1.67 4.3 1.34 6 1 C6 2.32 6 3.64 6 5 C2.35839192 6.21386936 1.66834531 5.6674695 -1.6875 4.0625 C-2.89986328 3.49208984 -2.89986328 3.49208984 -4.13671875 2.91015625 C-4.75160156 2.60980469 -5.36648437 2.30945313 -6 2 C-2.25 0.875 -2.25 0.875 0 2 C0 1.34 0 0.68 0 0 Z " fill="#4B454B" transform="translate(229,204)"/>
<path d="M0 0 C3 1 3 1 4 3 C4.99 3.66 5.98 4.32 7 5 C2.545 5.495 2.545 5.495 -2 6 C-2 4.35 -2 2.7 -2 1 C-1.34 0.67 -0.68 0.34 0 0 Z " fill="#09060A" transform="translate(304,201)"/>
<path d="M0 0 C0 0.33 0 0.66 0 1 C-2.06081361 1.50690584 -4.12373526 2.00524619 -6.1875 2.5 C-7.91033203 2.91765625 -7.91033203 2.91765625 -9.66796875 3.34375 C-12.56818829 3.91495385 -15.06096385 4.13283779 -18 4 C-17.67 3.34 -17.34 2.68 -17 2 C-11.21856386 0.14168124 -6.04364596 -0.25181858 0 0 Z " fill="#7E777B" transform="translate(222,461)"/>
<path d="M0 0 C3.96 1.98 7.92 3.96 12 6 C10.68 6.33 9.36 6.66 8 7 C8 6.34 8 5.68 8 5 C5.69 5.33 3.38 5.66 1 6 C0.4465236 3.92446352 0 2.15634036 0 0 Z " fill="#555456" transform="translate(314,264)"/>
<path d="M0 0 C1.98 0 3.96 0 6 0 C4.68775452 3.93673644 3.08089673 6.22719294 0 9 C-0.66 8.34 -1.32 7.68 -2 7 C-0.35 5.35 1.3 3.7 3 2 C2.01 1.34 1.02 0.68 0 0 Z " fill="#545255" transform="translate(119,307)"/>
<path d="M0 0 C2.64 0.33 5.28 0.66 8 1 C6.03246796 2.54591803 4.19401516 3.90593204 1.9375 5 C-0.37139352 6.06735334 -0.37139352 6.06735334 -3 9 C-2.01 6.03 -1.02 3.06 0 0 Z " fill="#5F5D63" transform="translate(256,276)"/>
<path d="M0 0 C0.99 0 1.98 0 3 0 C3.33 1.65 3.66 3.3 4 5 C3.360625 5.12375 2.72125 5.2475 2.0625 5.375 C1.0415625 5.684375 1.0415625 5.684375 0 6 C-0.33 6.66 -0.66 7.32 -1 8 C-1.66 8 -2.32 8 -3 8 C-1.125 1.125 -1.125 1.125 0 0 Z " fill="#383536" transform="translate(123,26)"/>
<path d="M0 0 C0.268125 0.61875 0.53625 1.2375 0.8125 1.875 C1.95556848 4.2995233 1.95556848 4.2995233 5 6 C4.34 6 3.68 6 3 6 C3 6.99 3 7.98 3 9 C3.66 9.33 4.32 9.66 5 10 C4.01 11.485 4.01 11.485 3 13 C2.29819469 11.5903653 1.61406042 10.17192359 0.9375 8.75 C0.55464844 7.96109375 0.17179687 7.1721875 -0.22265625 6.359375 C-1.08564091 3.74006478 -0.93045933 2.55144824 0 0 Z " fill="#635E63" transform="translate(287,404)"/>
<path d="M0 0 C0 4.24645065 -1.81750806 6.38524772 -4 10 C-5.65 10 -7.3 10 -9 10 C-8.67 9.34 -8.34 8.68 -8 8 C-7.34 8 -6.68 8 -6 8 C-5.7525 7.4225 -5.505 6.845 -5.25 6.25 C-3.83316683 3.6997003 -2.12372463 1.98214299 0 0 Z " fill="#625E62" transform="translate(231,282)"/>
<path d="M0 0 C-4.20447284 4.65495208 -4.20447284 4.65495208 -8 5 C-10.75 4.5625 -10.75 4.5625 -13 4 C-10.96180154 1.96180154 -9.70582202 1.32158941 -7.0625 0.3125 C-6.37285156 0.04050781 -5.68320312 -0.23148438 -4.97265625 -0.51171875 C-3 -1 -3 -1 0 0 Z " fill="#4B454B" transform="translate(320,209)"/>
<path d="M0 0 C0.66 0 1.32 0 2 0 C2.28875 1.134375 2.5775 2.26875 2.875 3.4375 C3.24625 4.613125 3.6175 5.78875 4 7 C4.66 7.33 5.32 7.66 6 8 C6 8.99 6 9.98 6 11 C5.01 11 4.02 11 3 11 C2.49384702 9.73160474 1.99530901 8.46016898 1.5 7.1875 C1.2215625 6.47980469 0.943125 5.77210938 0.65625 5.04296875 C0 3 0 3 0 0 Z " fill="#646164" transform="translate(105,417)"/>
<path d="M0 0 C3.32710168 4.99065252 5.58827908 10.92111612 5 17 C2.5863604 14.5863604 2.24467148 12.90164101 1.375 9.625 C1.11460938 8.66851562 0.85421875 7.71203125 0.5859375 6.7265625 C0 4 0 4 0 0 Z " fill="#777577" transform="translate(100,400)"/>
<path d="M0 0 C0.66 0 1.32 0 2 0 C2.28571429 8.57142857 2.28571429 8.57142857 0 12 C-0.99 11.67 -1.98 11.34 -3 11 C-2.34 11 -1.68 11 -1 11 C-0.67 7.37 -0.34 3.74 0 0 Z " fill="#656065" transform="translate(271,301)"/>
<path d="M0 0 C0.66 0 1.32 0 2 0 C2.66 4.29 3.32 8.58 4 13 C3.34 13 2.68 13 2 13 C0.24252386 8.49646738 -0.19294408 4.82360189 0 0 Z " fill="#706C70" transform="translate(244,166)"/>
<path d="M0 0 C0.99 0.33 1.98 0.66 3 1 C2.67 2.32 2.34 3.64 2 5 C2.99 4.67 3.98 4.34 5 4 C5.33 4.99 5.66 5.98 6 7 C5.34 7 4.68 7 4 7 C4 8.65 4 10.3 4 12 C2.09681116 9.14521674 1.5380901 7.58058692 0.875 4.3125 C0.70742188 3.50425781 0.53984375 2.69601562 0.3671875 1.86328125 C0.24601562 1.24839844 0.12484375 0.63351562 0 0 Z " fill="#4D4A4A" transform="translate(266,344)"/>
<path d="M0 0 C2.97 0.33 5.94 0.66 9 1 C5.31265242 3.45823172 2.30300029 4.01242616 -2 5 C-1.34 3.35 -0.68 1.7 0 0 Z " fill="#676567" transform="translate(198,244)"/>
<path d="M0 0 C0.33 0.66 0.66 1.32 1 2 C0.01 3.32 -0.98 4.64 -2 6 C-2 5.34 -2 4.68 -2 4 C-2.5775 4.350625 -3.155 4.70125 -3.75 5.0625 C-6 6 -6 6 -10 5 C-6.7 3.35 -3.4 1.7 0 0 Z " fill="#7A7279" transform="translate(330,202)"/>
<path d="M0 0 C1.10823626 3.32470879 0.94327361 3.93308147 -0.25 7.0625 C-0.62898438 8.10083984 -0.62898438 8.10083984 -1.015625 9.16015625 C-2 11 -2 11 -5 13 C-4.54554036 11.58208592 -4.08625056 10.16571954 -3.625 8.75 C-3.24214844 7.56664062 -3.24214844 7.56664062 -2.8515625 6.359375 C-2.04826333 4.13372042 -1.10288338 2.09068328 0 0 Z " fill="#686567" transform="translate(38,173)"/>
<path d="M0 0 C0.66 0.33 1.32 0.66 2 1 C0.68 2.65 -0.64 4.3 -2 6 C-1.67 6.66 -1.34 7.32 -1 8 C-1.99 8.33 -2.98 8.66 -4 9 C-4.99 8.34 -5.98 7.68 -7 7 C-4.69 4.69 -2.38 2.38 0 0 Z " fill="#545353" transform="translate(289,27)"/>
<path d="M0 0 C0.99 0.33 1.98 0.66 3 1 C3 5.95 3 10.9 3 16 C2.67 16 2.34 16 2 16 C1.93941406 15.26394531 1.87882812 14.52789062 1.81640625 13.76953125 C1.73261719 12.79371094 1.64882813 11.81789063 1.5625 10.8125 C1.48128906 9.84957031 1.40007812 8.88664062 1.31640625 7.89453125 C1.02333849 5.21350398 0.57296246 2.6337014 0 0 Z " fill="#4B494D" transform="translate(295,294)"/>
<path d="M0 0 C0.66 0.33 1.32 0.66 2 1 C1.2884375 1.8353125 1.2884375 1.8353125 0.5625 2.6875 C-1.12395996 5.18346074 -1.58953107 7.0446237 -2 10 C-4 8 -4 8 -4.375 5.5625 C-4 3 -4 3 -2 1.1875 C-1.34 0.795625 -0.68 0.40375 0 0 Z " fill="#6B676C" transform="translate(289,270)"/>
<path d="M0 0 C0.33 1.98 0.66 3.96 1 6 C-2.45925163 4.7508258 -5.14693203 3.32472205 -8 1 C-5.10765685 0.17361624 -3.11257569 0 0 0 Z " fill="#454144" transform="translate(152,153)"/>
<path d="M0 0 C0 1.32 0 2.64 0 4 C-5.75 2.25 -5.75 2.25 -8 0 C-4.94736336 -0.98120464 -3.05263664 -0.98120464 0 0 Z " fill="#3A353C" transform="translate(144,150)"/>
<path d="M0 0 C2.38672669 2.96283313 4.7353371 5.94270509 7 9 C6.67 9.66 6.34 10.32 6 11 C4.68 10.34 3.36 9.68 2 9 C2 7.35 2 5.7 2 4 C1.34 4 0.68 4 0 4 C0 2.68 0 1.36 0 0 Z " fill="#595659" transform="translate(424,320)"/>
<path d="M0 0 C0 0.66 0 1.32 0 2 C-0.99 2 -1.98 2 -3 2 C-3.33 2.99 -3.66 3.98 -4 5 C-8.455 5.495 -8.455 5.495 -13 6 C-10.65890118 4.43926745 -8.43666597 3.13626133 -5.9375 1.875 C-5.24527344 1.52179688 -4.55304688 1.16859375 -3.83984375 0.8046875 C-2 0 -2 0 0 0 Z " fill="#868085" transform="translate(217,267)"/>
<path d="M0 0 C-1.62339805 1.70884005 -3.29319053 3.37446717 -5 5 C-5.66 5 -6.32 5 -7 5 C-7 3.68 -7 2.36 -7 1 C-4.53721199 -0.231394 -2.7204945 -0.07159196 0 0 Z " fill="#504D4E" transform="translate(478,305)"/>
<path d="M0 0 C6.75 0.75 6.75 0.75 9 3 C8.67 3.99 8.34 4.98 8 6 C6.66402348 5.19185349 5.331275 4.37836819 4 3.5625 C3.2575 3.11003906 2.515 2.65757812 1.75 2.19140625 C1.1725 1.79824219 0.595 1.40507812 0 1 C0 0.67 0 0.34 0 0 Z " fill="#4B4A4C" transform="translate(225,179)"/>
<path d="M0 0 C2.10827055 3.16240582 2.33817465 4.50657469 2.625 8.1875 C2.69976562 9.08855469 2.77453125 9.98960938 2.8515625 10.91796875 C2.90054687 11.60503906 2.94953125 12.29210938 3 13 C2.690625 12.360625 2.38125 11.72125 2.0625 11.0625 C1.1654837 9.06389179 1.1654837 9.06389179 0 8 C-0.14115161 5.32941149 -0.04247107 2.67567762 0 0 Z " fill="#685C61" transform="translate(257,50)"/>
<path d="M0 0 C0 4.38968456 -2.12805101 5.76905739 -5 9 C-5 5.74188938 -4.4477922 3.89558441 -3 1 C-2.01 0.67 -1.02 0.34 0 0 Z " fill="#7D7A7C" transform="translate(265,434)"/>
<path d="M0 0 C1.65 0 3.3 0 5 0 C5.309375 0.78375 5.61875 1.5675 5.9375 2.375 C6.92875038 4.92330128 6.92875038 4.92330128 8 7 C4.2047869 5.50902342 2.38957269 3.24299151 0 0 Z " fill="#504E4E" transform="translate(47,299)"/>
<path d="M0 0 C3.68754757 0.49831724 5.60490662 1.10067643 8 4 C7.01 4.33 6.02 4.66 5 5 C4.67 4.01 4.34 3.02 4 2 C2.02 2.66 0.04 3.32 -2 4 C-1.34 2.68 -0.68 1.36 0 0 Z " fill="#585259" transform="translate(302,258)"/>
<path d="M0 0 C-1.28913487 0.67154933 -2.58140204 1.33708859 -3.875 2 C-4.59429687 2.37125 -5.31359375 2.7425 -6.0546875 3.125 C-8 4 -8 4 -10 4 C-10 3.34 -10 2.68 -10 2 C-9.34 2 -8.68 2 -8 2 C-8 1.34 -8 0.68 -8 0 C-4.71303767 -0.79953138 -3.28976808 -1.09658936 0 0 Z " fill="#68656A" transform="translate(226,258)"/>
<path d="M0 0 C0.66 0 1.32 0 2 0 C2.268125 0.639375 2.53625 1.27875 2.8125 1.9375 C3.88667752 4.33131686 3.88667752 4.33131686 7 5 C7 5.66 7 6.32 7 7 C3.54074837 5.7508258 0.85306797 4.32472205 -2 2 C-1.34 1.34 -0.68 0.68 0 0 Z " fill="#3B393B" transform="translate(216,198)"/>
<path d="M0 0 C0.99 0 1.98 0 3 0 C3.28875 0.61875 3.5775 1.2375 3.875 1.875 C4.93720042 4.13325765 4.93720042 4.13325765 7 6 C5.68 6 4.36 6 3 6 C3 5.34 3 4.68 3 4 C1.68 3.34 0.36 2.68 -1 2 C-0.67 1.34 -0.34 0.68 0 0 Z " fill="#0C090C" transform="translate(132,144)"/>
<path d="M0 0 C0 0.66 0 1.32 0 2 C-3.375 2.125 -3.375 2.125 -7 2 C-7.66 1.34 -8.32 0.68 -9 0 C-3.375 -1.125 -3.375 -1.125 0 0 Z " fill="#3C3A3C" transform="translate(71,310)"/>
<path d="M0 0 C0.33 0.66 0.66 1.32 1 2 C1.66 2 2.32 2 3 2 C1.25 5.875 1.25 5.875 -1 7 C-1 6.01 -1 5.02 -1 4 C-1.66 3.34 -2.32 2.68 -3 2 C-2.01 1.34 -1.02 0.68 0 0 Z " fill="#2F2B30" transform="translate(231,269)"/>
<path d="M0 0 C1.65 0 3.3 0 5 0 C5 0.99 5 1.98 5 3 C5.66 3.33 6.32 3.66 7 4 C7 4.66 7 5.32 7 6 C3.63279613 4.60667426 2.0140476 3.0210714 0 0 Z " fill="#3E2D3E" transform="translate(26,232)"/>
<path d="M0 0 C3.37462715 0.54723683 5.08235 1.0549 8 3 C8 3.66 8 4.32 8 5 C2.25 3.375 2.25 3.375 0 0 Z " fill="#787579" transform="translate(288,195)"/>
<path d="M0 0 C2.475 0.99 2.475 0.99 5 2 C5 3.98 5 5.96 5 8 C2.74754119 5.31158141 1.11786042 3.35358125 0 0 Z " fill="#625E62" transform="translate(287,280)"/>
<path d="M0 0 C2.46278801 2.46278801 2.99771255 4.70676982 4 8 C1.525 7.01 1.525 7.01 -1 6 C-0.67 4.02 -0.34 2.04 0 0 Z " fill="#4C4C4E" transform="translate(483,168)"/>
<path d="M0 0 C2.51083114 1.25541557 2.87125446 2.50063488 4 5 C0.31245243 4.50168276 -1.60490662 3.89932357 -4 1 C-2.68 1.33 -1.36 1.66 0 2 C0 1.34 0 0.68 0 0 Z " fill="#787578" transform="translate(107,138)"/>
</svg>
